<?xml version="1.0" encoding="utf-8"?>
<!DOCTYPE svg PUBLIC "-//W3C//DTD SVG 1.0//EN" "http://www.w3.org/TR/2001/REC-SVG-20010904/DTD/svg10.dtd">
<svg version="1.0" xmlns="http://www.w3.org/2000/svg" width="500px" height="500px" viewBox="0 0 500 500" preserveAspectRatio="xMidYMid meet">
 <g fill="#4690b1">
  <path d="M224.7 384.2 c-1.6 -0.7 -1.8 -2.4 -2.1 -15.7 -0.4 -17.6 -1.8 -22.8 -9.4 -34 -6.3 -9.2 -16.4 -17.5 -28.4 -23.6 -18.8 -9.4 -25.1 -14.7 -32.2 -26.8 -4.6 -8 -11.1 -26.5 -13.1 -37.9 -2.7 -14.4 -4.2 -18.8 -7.7 -21.7 -2.8 -2.4 -3.8 -2.7 -8 -2.2 -4.6 0.6 -4.8 0.5 -4.8 -1.8 0 -7.7 15.6 -6.9 21.9 1.1 3.3 4.2 6.2 13.1 8.2 25.3 1 6.3 2.3 11.9 2.8 12.4 0.5 0.5 1.6 -0.7 2.7 -2.9 2.5 -5 4.5 -6.1 8 -4.6 2.6 1.3 2.7 1.3 2 8.6 -0.4 4 -1.1 8.8 -1.6 10.7 -0.6 1.9 -1 5.2 -1 7.4 0.1 8.2 10.5 17.9 25.7 24 8.5 3.4 16.8 9.3 25.5 18.2 13.1 13.4 18.7 26.7 19.5 47 0.7 15 0.2 17.3 -3.5 17.2 -1.5 0 -3.5 -0.4 -4.5 -0.7z"/>
  <path d="M266.4 383.8 c-0.4 -0.7 -0.7 -6.4 -0.7 -12.8 0.1 -9.9 0.5 -12.8 3.2 -21 1.7 -5.2 4.7 -12.3 6.8 -15.8 7.2 -12.1 24.5 -27.3 35.5 -31.1 3 -1 7.3 -2.8 9.5 -4 5.9 -2.9 16 -12.6 16.7 -15.9 0.4 -1.5 -0.1 -6.5 -0.9 -11.2 -0.8 -4.7 -1.5 -10.9 -1.5 -13.8 0 -4.8 0.2 -5.3 2.6 -6.3 3.4 -1.2 7.4 1.1 7.4 4.4 0 1.2 0.4 2.9 0.9 3.6 1.3 2 2.2 -0.5 5.9 -15.9 3.7 -15.7 6.4 -21.5 12.2 -25.8 3.8 -3 5 -3.3 8.8 -2.9 4.7 0.5 8.2 3 8.2 5.8 0 2.1 -1.6 3.4 -2.5 1.9 -1.2 -2 -7.3 -1.1 -10.4 1.5 -3.5 3 -5.4 8.2 -8.1 22.5 -4.1 21.7 -11.2 38.7 -20.4 48.9 -3.6 4 -12.9 9.8 -23.8 14.9 -19 8.9 -32.5 22.8 -37.9 39 -2.2 6.7 -2.9 16.7 -1.9 28.7 l0.5 6 -4.7 0.3 c-2.9 0.2 -4.9 -0.2 -5.4 -1z"/>
  <path d="M166.1 361.5 c-11.8 -7.3 -30.6 -21.3 -35 -26 -5.5 -6 -9.7 -14.7 -11.5 -24.1 -1.7 -8.6 -4.1 -73.6 -3 -79.3 0.8 -4 3.1 -3.8 5.6 0.4 2.7 4.6 3.8 18.4 3.8 46.6 0 14.1 0.5 28.2 1.1 31.4 2 10.7 7 18.9 18.2 29.9 5.6 5.4 12.4 11.6 15.1 13.8 6 4.8 14 11.8 13.4 11.8 -0.2 0 -3.7 -2 -7.7 -4.5z"/>
  <path d="M334.5 359.8 c9.9 -8.5 27.7 -26.4 30.5 -30.7 6.9 -10.2 7.1 -12.1 8 -50.6 1 -42 2.2 -49.5 8.2 -49.5 2.2 0 2.1 -2.5 0.8 43.8 -0.6 19.1 -1.5 37.4 -2.1 40.7 -2.7 14.9 -12.6 25.8 -40.4 44.4 -9.7 6.5 -10.8 6.9 -5 1.9z"/>
 </g>
 <g fill="#6dacc9">
  <path d="M265.8 308.8 c3.5 -6.8 3.7 -7.9 3.7 -16.3 0 -11.8 -1.7 -15.3 -13.3 -28.3 -5 -5.6 -9.6 -11 -10.2 -12.2 -1 -1.9 -0.8 -2 7.1 -2 6.5 0 8.8 0.4 11.5 2.1 l3.4 2 -1.7 -3.8 c-0.9 -2.1 -2.4 -6.7 -3.3 -10.3 l-1.6 -6.5 -4.1 -0.3 c-3.8 -0.3 -4.2 -0.6 -5.7 -4.5 -0.9 -2.5 -1.6 -7.2 -1.6 -11.3 0 -6.1 0.4 -7.6 3 -11.7 1.7 -2.6 3 -5.4 3 -6.2 0 -0.8 0.8 -2.2 1.9 -3.2 4.4 -4.3 5.1 -18.4 1.3 -25.9 l-2 -3.8 -0.7 4.4 c-1.1 7.4 -3.6 15.2 -6.6 21 -3.5 7 -10.9 17.9 -10.9 16.3 0 -3 -3.2 -0.6 -11.7 8.7 -13.2 14.5 -19.3 28 -19.3 42.6 0 8.8 7.3 26.7 16.4 40.3 l5.4 8.1 -4.9 -2.6 c-5.7 -3.2 -17.5 -15 -21.3 -21.5 -5.2 -9 -6.8 -23.4 -4.1 -36.4 2.2 -10.6 7.1 -19.1 23.2 -40.5 16 -21.4 18.6 -26.1 20.3 -36.5 2 -12.3 -0.2 -24.5 -6.2 -33.7 -3 -4.8 -3.3 -5.9 -3.3 -13.3 0 -6.9 0.4 -8.7 2.8 -13 1.5 -2.7 3.7 -6.1 4.8 -7.5 l2.1 -2.5 -0.6 4.7 c-0.8 6.7 1 15.2 5 23.3 3.2 6.6 5.7 10.2 19.8 28 12.4 15.8 13.8 30.3 4.5 48.7 -1.6 3.2 -2.9 6 -2.9 6.3 0 1.4 3.9 0.3 5.6 -1.6 1 -1.1 2.7 -2.5 3.8 -3.1 1.8 -1 1.8 -0.5 1.2 10.9 -0.8 14 0 18.1 7 33.5 4.3 9.3 4.8 11.2 5.2 19.5 0.9 17.9 -6.1 31 -21.7 41.2 -3.5 2.2 -6.8 4.1 -7.2 4.1 -0.5 0 0.9 -3.3 2.9 -7.2z"/>
 </g>
 <g fill="#93c6de">
  <path d="M276.2 272 c-2.7 -5.7 -9.8 -14 -14.7 -17 -2.7 -1.6 -4.8 -2.1 -9 -1.9 -5.4 0.3 -5.7 0.1 -7.9 -3.2 -7.4 -10.9 -10.3 -25.6 -7.1 -36.4 1.1 -4.1 1.3 -6.1 0.6 -6.3 -1.8 -0.6 -1.3 -2 2.8 -8 8.1 -12.1 12.2 -23.2 12.5 -34.2 0.3 -8.1 1.8 -8.5 6.3 -1.7 4.4 6.6 5.6 11.7 5 21.2 -0.6 9.9 -1.3 12.7 -3.2 14.1 -0.8 0.6 -1.2 1.4 -0.8 1.7 0.3 0.4 0.1 0.7 -0.6 0.7 -0.7 0 -1 0.3 -0.7 0.8 0.2 0.4 -1.1 3.2 -3 6.2 -3.9 6.2 -4.4 10.9 -1.8 17.8 1.7 4.3 3.6 5.1 4.3 1.6 0.2 -1 0.8 -2.5 1.4 -3.2 1.3 -1.6 3.8 4.2 5.7 13.1 0.6 3.2 3.9 11.1 7.2 17.5 4.2 8.3 6.1 13.2 6.5 17 0.3 2.8 0.2 5.2 -0.3 5.2 -0.5 -0.1 -1.9 -2.3 -3.2 -5z"/>
 </g>
</svg>